<?xml version="1.0" encoding="utf-8"?>
<!-- Generator: Adobe Illustrator 27.3.1, SVG Export Plug-In . SVG Version: 6.00 Build 0)  -->
<svg version="1.1" id="Layer_1" xmlns="http://www.w3.org/2000/svg" xmlns:xlink="http://www.w3.org/1999/xlink" x="0px" y="0px"
	 viewBox="0 0 180 179" style="enable-background:new 0 0 180 179;" xml:space="preserve">
<style type="text/css">
	.st0{fill:#41B06E;stroke:#41B06E;stroke-width:6;stroke-miterlimit:10;}
	.st1{fill:#231F20;stroke:#41B06E;stroke-width:6;stroke-miterlimit:10;}
	.st2{fill:#FFFFFF;stroke:#41B06E;stroke-width:6;stroke-miterlimit:10;}
	.st3{fill-rule:evenodd;clip-rule:evenodd;fill:#41B06E;}
</style>
<g>
	<g>
		<g>
			<path class="st0" d="M108.8,169.6c-30.7,0-55.6-24.9-55.6-55.6c0-14.5,5.6-28.2,15.6-38.6c0.6-0.6,1.6-0.7,2.3,0
				c0.6,0.6,0.7,1.6,0,2.3c-9.5,9.8-14.7,22.7-14.7,36.4c0,28.9,23.5,52.4,52.3,52.4s52.4-23.5,52.4-52.4c0-0.9,0.7-1.6,1.6-1.6
				c0.9,0,1.6,0.7,1.6,1.6C164.4,144.7,139.5,169.6,108.8,169.6z"/>
			<path class="st0" d="M147,77.5c-0.4,0-0.8-0.2-1.2-0.5c-9.9-9.9-23-15.3-37-15.3c-7.9,0-15.4,1.7-22.5,5.1
				c-0.8,0.4-1.8,0-2.2-0.8c-0.4-0.8,0-1.8,0.8-2.1c7.5-3.6,15.6-5.4,23.9-5.4c14.9,0,28.8,5.8,39.3,16.3c0.6,0.6,0.6,1.6,0,2.3
				C147.8,77.3,147.4,77.5,147,77.5z"/>
			<path class="st1" d="M162.8,115.6h-54c-0.9,0-1.6-0.7-1.6-1.6s0.7-1.6,1.6-1.6h54c0.9,0,1.6,0.7,1.6,1.6S163.7,115.6,162.8,115.6
				z"/>
		</g>
		<path class="st2" d="M108.7,115.5c-0.6,0-1.2-0.3-1.5-0.9L59.8,14.7l-47.4,99.8c-0.4,0.8-1.3,1.2-2.2,0.8
			c-0.8-0.4-1.2-1.3-0.8-2.1L58.4,10.2c0.5-1.1,2.4-1.1,2.9,0l48.9,102.9c0.4,0.8,0,1.8-0.8,2.1
			C109.2,115.4,108.9,115.5,108.7,115.5z"/>
	</g>
	<path class="st3" d="M119.5,53.7c0.5-0.3,1.1-0.5,1.6-0.7c14.5-5.9,31,0.9,37,15.2c2.9,7,2.8,14.4,0.2,20.9
		c-25.2,0.2-42.8-21.3-42.8-21.3c12,22.6,26.7,28.9,37.1,30.2c7.9,1,13.3-0.9,13.3-0.9c5.4-9.8,6.4-21.7,1.8-32.8
		c-8.2-19.5-30.8-28.7-50.5-20.7"/>
</g>
</svg>
