<?xml version="1.0" encoding="utf-8"?>
<!-- Generator: Adobe Illustrator 27.3.1, SVG Export Plug-In . SVG Version: 6.00 Build 0)  -->
<svg version="1.1" id="Layer_1" xmlns="http://www.w3.org/2000/svg" xmlns:xlink="http://www.w3.org/1999/xlink" x="0px" y="0px"
	 viewBox="0 0 120 70" style="enable-background:new 0 0 120 70;" xml:space="preserve">
<style type="text/css">
	.st0{display:none;fill-rule:evenodd;clip-rule:evenodd;fill:#41B06E;}
	.st1{fill:#FFFFFF;stroke:#FFFFFF;stroke-miterlimit:10;}
	.st2{fill:#41B06E;stroke:#FFFFFF;stroke-miterlimit:10;}
	.st3{fill-rule:evenodd;clip-rule:evenodd;fill:#FFFFFF;}
	.st4{fill:#FFFFFF;}
</style>
<rect class="st0" width="120" height="70"/>
<g>
	<g>
		<g>
			<g>
				<path class="st1" d="M64.4,36.7c-6.5,0-11.8-5.4-11.8-11.9c0-3.1,1.2-6.1,3.3-8.3c0.1-0.1,0.3-0.1,0.5,0c0.1,0.1,0.1,0.4,0,0.5
					c-2,2.1-3.1,4.9-3.1,7.8c0,6.2,5,11.2,11.1,11.2c6.1,0,11.1-5,11.1-11.2c0-0.2,0.2-0.3,0.3-0.3s0.3,0.2,0.3,0.3
					C76.2,31.4,70.9,36.7,64.4,36.7z"/>
				<path class="st1" d="M72.5,16.9c-0.1,0-0.2,0-0.2-0.1c-2.1-2.1-4.9-3.3-7.8-3.3c-1.7,0-3.3,0.4-4.8,1.1c-0.2,0.1-0.4,0-0.5-0.2
					c-0.1-0.2,0-0.4,0.2-0.5c1.6-0.8,3.3-1.2,5.1-1.2c3.2,0,6.1,1.2,8.3,3.5c0.1,0.1,0.1,0.4,0,0.5C72.7,16.9,72.6,16.9,72.5,16.9z"
					/>
				<path class="st1" d="M75.8,25.1H64.4c-0.2,0-0.3-0.2-0.3-0.3c0-0.2,0.2-0.3,0.3-0.3h11.4c0.2,0,0.3,0.2,0.3,0.3
					C76.2,25,76,25.1,75.8,25.1z"/>
			</g>
			<path class="st2" d="M64.4,25.1c-0.1,0-0.3-0.1-0.3-0.2L54,3.5L44,24.9c-0.1,0.2-0.3,0.2-0.5,0.2c-0.2-0.1-0.2-0.3-0.2-0.5
				L53.7,2.5c0.1-0.2,0.5-0.2,0.6,0l10.4,22.1c0.1,0.2,0,0.4-0.2,0.5C64.5,25.1,64.4,25.1,64.4,25.1z"/>
		</g>
		<path class="st3" d="M66.7,11.8c0.1-0.1,0.2-0.1,0.3-0.2c3.1-1.3,6.6,0.2,7.8,3.3c0.6,1.5,0.6,3.1,0,4.5c-5.3,0-9.1-4.6-9.1-4.6
			c2.5,4.8,5.6,6.2,7.9,6.5c1.7,0.2,2.8-0.2,2.8-0.2c1.1-2.1,1.4-4.7,0.4-7c-1.7-4.2-6.5-6.2-10.7-4.4"/>
	</g>
	<g>
		<g>
			<path class="st4" d="M17.6,58.6v0.8h-2.9v2.2h2.1v0.8h-2.1v2.8h-1.3v-6.6H17.6z"/>
			<path class="st4" d="M21.4,59.9c0.2,0,0.4,0,0.6,0.1c0.2,0.1,0.3,0.2,0.4,0.3c0.1,0.1,0.2,0.3,0.3,0.5c0.1,0.2,0.1,0.5,0.1,0.8
				v1.8c0,0.3,0,0.6-0.1,0.8c-0.1,0.2-0.1,0.4-0.2,0.5c-0.1,0.1-0.3,0.2-0.4,0.3c-0.2,0.1-0.4,0.1-0.6,0.1h-1.8
				c-0.2,0-0.5,0-0.6-0.1c-0.2-0.1-0.3-0.2-0.4-0.3c-0.1-0.1-0.2-0.3-0.2-0.5c0-0.2-0.1-0.5-0.1-0.8v-1.8c0-0.3,0-0.6,0.1-0.8
				c0-0.2,0.1-0.4,0.2-0.5c0.1-0.1,0.3-0.2,0.4-0.3c0.2-0.1,0.4-0.1,0.6-0.1H21.4z M19.5,63.5c0,0.3,0,0.6,0.1,0.7
				c0.1,0.1,0.2,0.2,0.4,0.2H21c0.2,0,0.3-0.1,0.4-0.2c0.1-0.1,0.1-0.4,0.1-0.7v-1.8c0-0.3,0-0.5-0.1-0.7c-0.1-0.1-0.2-0.2-0.4-0.2
				H20c-0.2,0-0.3,0.1-0.4,0.2c-0.1,0.1-0.1,0.4-0.1,0.7V63.5z"/>
			<path class="st4" d="M26.4,59.9c0.2,0,0.4,0,0.6,0.1c0.2,0.1,0.3,0.2,0.4,0.3c0.1,0.1,0.2,0.3,0.3,0.5c0.1,0.2,0.1,0.5,0.1,0.8
				v1.8c0,0.3,0,0.6-0.1,0.8c-0.1,0.2-0.1,0.4-0.2,0.5c-0.1,0.1-0.3,0.2-0.4,0.3c-0.2,0.1-0.4,0.1-0.6,0.1h-1.8
				c-0.2,0-0.5,0-0.6-0.1c-0.2-0.1-0.3-0.2-0.4-0.3c-0.1-0.1-0.2-0.3-0.2-0.5c0-0.2-0.1-0.5-0.1-0.8v-1.8c0-0.3,0-0.6,0.1-0.8
				c0-0.2,0.1-0.4,0.2-0.5c0.1-0.1,0.3-0.2,0.4-0.3c0.2-0.1,0.4-0.1,0.6-0.1H26.4z M24.6,63.5c0,0.3,0,0.6,0.1,0.7
				c0.1,0.1,0.2,0.2,0.4,0.2H26c0.2,0,0.3-0.1,0.4-0.2c0.1-0.1,0.1-0.4,0.1-0.7v-1.8c0-0.3,0-0.5-0.1-0.7c-0.1-0.1-0.2-0.2-0.4-0.2
				h-0.9c-0.2,0-0.3,0.1-0.4,0.2c-0.1,0.1-0.1,0.4-0.1,0.7V63.5z"/>
			<path class="st4" d="M32.7,58.3v7h-2.9c-0.2,0-0.4,0-0.6-0.1c-0.2-0.1-0.3-0.2-0.4-0.3c-0.1-0.1-0.2-0.3-0.2-0.6
				c-0.1-0.2-0.1-0.5-0.1-0.8v-1.6c0-0.3,0-0.6,0.1-0.8c0.1-0.2,0.1-0.4,0.2-0.6c0.1-0.1,0.3-0.3,0.4-0.3s0.4-0.1,0.6-0.1h1.6v-1.7
				H32.7z M29.7,62.9c0,0.3,0,0.6,0,0.8c0,0.2,0.1,0.3,0.1,0.4c0.1,0.1,0.2,0.2,0.3,0.2c0.1,0,0.3,0,0.5,0h0.8v-3.6h-1.2
				c-0.1,0-0.2,0-0.2,0c-0.1,0-0.1,0.1-0.2,0.1c0,0.1-0.1,0.2-0.1,0.3c0,0.1,0,0.3,0,0.4V62.9z"/>
			<path class="st4" d="M42.6,58.6v0.8h-1.4v5h1.4v0.8h-4.1v-0.8H40v-5h-1.4v-0.8H42.6z"/>
			<path class="st4" d="M46.4,59.9c0.2,0,0.5,0,0.6,0.1c0.2,0,0.3,0.1,0.4,0.3s0.2,0.3,0.2,0.5c0,0.2,0.1,0.5,0.1,0.8v3.6h-1.3v-3.6
				c0-0.2,0-0.3,0-0.4c0-0.1,0-0.2-0.1-0.3c0-0.1-0.1-0.1-0.2-0.1c-0.1,0-0.1,0-0.2,0h-1.3v4.4h-1.3v-5.3H46.4z"/>
			<path class="st4" d="M52.8,58.3v7h-2.9c-0.2,0-0.4,0-0.6-0.1c-0.2-0.1-0.3-0.2-0.4-0.3c-0.1-0.1-0.2-0.3-0.2-0.6
				c-0.1-0.2-0.1-0.5-0.1-0.8v-1.6c0-0.3,0-0.6,0.1-0.8c0.1-0.2,0.1-0.4,0.2-0.6c0.1-0.1,0.3-0.3,0.4-0.3s0.4-0.1,0.6-0.1h1.6v-1.7
				H52.8z M49.8,62.9c0,0.3,0,0.6,0,0.8c0,0.2,0.1,0.3,0.1,0.4c0.1,0.1,0.2,0.2,0.3,0.2c0.1,0,0.3,0,0.5,0h0.8v-3.6h-1.2
				c-0.1,0-0.2,0-0.2,0c-0.1,0-0.1,0.1-0.2,0.1c0,0.1-0.1,0.2-0.1,0.3c0,0.1,0,0.3,0,0.4V62.9z"/>
			<path class="st4" d="M54.8,59.9v3.6c0,0.2,0,0.3,0,0.5c0,0.1,0,0.2,0.1,0.3c0,0.1,0.1,0.1,0.2,0.1c0.1,0,0.1,0,0.2,0h1.3v-4.5
				h1.3v5.3h-3c-0.2,0-0.5,0-0.6-0.1c-0.2-0.1-0.3-0.1-0.4-0.3c-0.1-0.1-0.2-0.3-0.2-0.5c0-0.2-0.1-0.5-0.1-0.8v-3.7H54.8z"/>
			<path class="st4" d="M62.6,59.9v0.8h-2.5c-0.1,0-0.3,0-0.3,0.1s-0.1,0.3-0.1,0.5c0,0.4,0.2,0.6,0.5,0.6h1.7c0.2,0,0.4,0,0.5,0.1
				c0.1,0.1,0.3,0.2,0.4,0.3c0.1,0.1,0.2,0.3,0.2,0.5c0.1,0.2,0.1,0.4,0.1,0.6c0,0.5-0.1,0.9-0.3,1.2c-0.2,0.3-0.5,0.4-0.9,0.4h-3.1
				v-0.8h2.8c0.1,0,0.2-0.1,0.3-0.2c0.1-0.1,0.1-0.3,0.1-0.5c0-0.2,0-0.4-0.1-0.5s-0.2-0.2-0.3-0.2h-1.8c-0.2,0-0.4,0-0.5-0.1
				c-0.1-0.1-0.3-0.2-0.4-0.3c-0.1-0.1-0.2-0.3-0.2-0.5c0-0.2-0.1-0.4-0.1-0.6c0-0.5,0.1-0.9,0.3-1.1c0.2-0.3,0.5-0.4,1-0.4H62.6z"
				/>
			<path class="st4" d="M66.2,58.6v1.4h1.7v0.8h-1.7v2.9c0,0.2,0,0.3,0,0.4c0,0.1,0.1,0.2,0.1,0.2c0.1,0,0.2,0.1,0.3,0.1
				s0.3,0,0.5,0v0.8h-0.9c-0.3,0-0.5,0-0.7-0.1c-0.2,0-0.3-0.1-0.4-0.2c-0.1-0.1-0.2-0.2-0.2-0.4c0-0.2-0.1-0.4-0.1-0.7v-3h-1.2
				v-0.8h1.2v-1.4H66.2z"/>
			<path class="st4" d="M72.8,60.8h-1.9c-0.2,0-0.3,0-0.4,0c-0.1,0-0.2,0.1-0.2,0.1c-0.1,0.1-0.1,0.2-0.1,0.3c0,0.1,0,0.3,0,0.5v3.5
				h-1.3v-3.7c0-0.6,0.1-1,0.4-1.2c0.3-0.3,0.7-0.4,1.3-0.4h2.2V60.8z"/>
			<path class="st4" d="M76.4,59.9v4.5h1.4v0.8h-4.2v-0.8h1.5v-3.6h-1.5v-0.8H76.4z M76.6,58.3v1h-1.5v-1H76.6z"/>
			<path class="st4" d="M81.9,59.9c0.3,0,0.6,0.1,0.8,0.4c0.2,0.2,0.3,0.6,0.3,1.2c0,0.5-0.1,0.9-0.3,1.2c-0.2,0.2-0.5,0.4-0.8,0.4
				H80v0.5c0,0.2,0,0.4,0,0.5c0,0.1,0.1,0.2,0.1,0.3c0,0.1,0.1,0.1,0.2,0.1c0.1,0,0.2,0,0.3,0h1.9v0.8H80c-0.2,0-0.4,0-0.6-0.1
				c-0.2-0.1-0.3-0.2-0.4-0.3c-0.1-0.1-0.2-0.3-0.2-0.5c-0.1-0.2-0.1-0.5-0.1-0.8v-1.8c0-0.3,0-0.6,0.1-0.8c0.1-0.2,0.1-0.4,0.2-0.5
				c0.1-0.1,0.2-0.2,0.4-0.3c0.2-0.1,0.4-0.1,0.6-0.1H81.9z M80,62.3h1.4c0.1,0,0.2,0,0.2,0c0.1,0,0.1-0.1,0.2-0.1
				c0-0.1,0.1-0.1,0.1-0.2c0-0.1,0-0.2,0-0.4c0-0.2,0-0.3,0-0.4c0-0.1,0-0.2-0.1-0.2c0,0-0.1-0.1-0.1-0.1c-0.1,0-0.1,0-0.2,0h-0.9
				c-0.1,0-0.2,0-0.2,0c-0.1,0-0.1,0.1-0.2,0.1c0,0.1-0.1,0.2-0.1,0.3c0,0.1,0,0.3,0,0.4V62.3z"/>
			<path class="st4" d="M87.7,59.9v0.8h-2.5c-0.1,0-0.3,0-0.3,0.1s-0.1,0.3-0.1,0.5c0,0.4,0.2,0.6,0.5,0.6h1.7c0.2,0,0.4,0,0.5,0.1
				c0.1,0.1,0.3,0.2,0.4,0.3c0.1,0.1,0.2,0.3,0.2,0.5c0.1,0.2,0.1,0.4,0.1,0.6c0,0.5-0.1,0.9-0.3,1.2c-0.2,0.3-0.5,0.4-0.9,0.4h-3.1
				v-0.8h2.8c0.1,0,0.2-0.1,0.3-0.2c0.1-0.1,0.1-0.3,0.1-0.5c0-0.2,0-0.4-0.1-0.5s-0.2-0.2-0.3-0.2h-1.8c-0.2,0-0.4,0-0.5-0.1
				c-0.1-0.1-0.3-0.2-0.4-0.3c-0.1-0.1-0.2-0.3-0.2-0.5c0-0.2-0.1-0.4-0.1-0.6c0-0.5,0.1-0.9,0.3-1.1c0.2-0.3,0.5-0.4,1-0.4H87.7z"
				/>
		</g>
		<g>
			<path class="st4" d="M20.7,52.6h-3.5l-0.5,3.3h-3l3.3-15.8h4l3.3,15.8h-3L20.7,52.6z M17.5,50.7h2.9l-1.3-8.5h-0.3L17.5,50.7z"/>
			<path class="st4" d="M28.9,40.2V54h7v1.9h-10V40.2H28.9z"/>
			<path class="st4" d="M47.4,40.2v2h-5.3c-0.2,0-0.4,0.1-0.6,0.2c-0.2,0.1-0.3,0.3-0.4,0.5c-0.1,0.2-0.2,0.5-0.3,0.8
				c-0.1,0.3-0.1,0.6-0.1,0.9v7.2c0,0.3,0,0.6,0.1,0.9c0.1,0.3,0.2,0.5,0.3,0.8c0.1,0.2,0.3,0.4,0.4,0.5c0.2,0.1,0.4,0.2,0.6,0.2
				h2.8v-5h-2.6v-2h5.4v8.9h-6.8c-0.5,0-0.9-0.1-1.2-0.3c-0.4-0.2-0.7-0.5-0.9-0.9c-0.3-0.4-0.5-0.8-0.6-1.4
				c-0.1-0.5-0.2-1.1-0.2-1.7v-7.2c0-0.6,0.1-1.2,0.2-1.7c0.1-0.5,0.4-1,0.6-1.4c0.3-0.4,0.6-0.7,0.9-0.9c0.4-0.2,0.8-0.3,1.2-0.3
				H47.4z"/>
			<path class="st4" d="M52.6,40.2v6.9h4.2v-6.9h3v15.8h-3V49h-4.2v6.9h-3.1V40.2H52.6z"/>
			<path class="st4" d="M68.4,52.6h-3.5l-0.5,3.3h-3l3.3-15.8h4l3.3,15.8h-3L68.4,52.6z M65.2,50.7h2.9l-1.3-8.5h-0.3L65.2,50.7z"/>
			<path class="st4" d="M83.6,40.2v1.6L77.1,54h6.5v1.9H73.5v-1.3l6.8-12.5h-6.8v-2H83.6z"/>
			<path class="st4" d="M92.2,52.6h-3.5l-0.5,3.3h-3l3.3-15.8h4l3.3,15.8h-3L92.2,52.6z M89,50.7h2.9l-1.3-8.5h-0.3L89,50.7z"/>
			<path class="st4" d="M100.4,40.2V54h7v1.9h-10V40.2H100.4z"/>
		</g>
	</g>
</g>
</svg>
